<svg width="324" height="307" viewBox="0 0 324 307" fill="none" xmlns="http://www.w3.org/2000/svg">
<path d="M146.736 307V282.561C146.736 263.306 142.53 228.971 134.118 179.555C130.319 156.26 124.078 132.024 115.394 106.844C106.575 81.261 97.3491 61.1983 87.7161 46.6559C80.2537 35.615 71.3667 30.0944 61.0553 30.0941C49.3869 30.0944 41.2462 34.5378 36.6332 43.4243C32.4271 51.6382 30.3241 60.5924 30.3241 70.2868C30.3241 90.7537 37.7185 109.268 52.5075 125.83H17.9095C5.96983 107.652 -1.30251e-05 88.4647 0 68.2671C-1.30251e-05 47.1275 5.69847 30.5656 17.0955 18.5816C28.8995 6.19416 43.2135 0.000303768 60.0377 0C81.7461 0.000303768 98.7059 8.88714 110.917 26.6605C124.756 46.7235 136.289 71.095 145.515 99.775C152.027 120.646 157.522 143.738 162 169.052C166.477 143.738 171.972 120.646 178.485 99.775C187.168 71.7682 198.701 47.3968 213.083 26.6605C225.294 8.88714 242.254 0.000303768 263.962 0C280.786 0.000303768 295.1 6.19416 306.905 18.5816C318.301 30.5656 324 47.1275 324 68.2671C324 88.4647 318.03 107.652 306.09 125.83H271.492C286.281 109.268 293.676 90.7537 293.676 70.2868C293.676 60.5924 291.573 51.6382 287.367 43.4243C282.753 34.5378 274.613 30.0944 262.945 30.0941C252.633 30.0944 243.746 35.615 236.284 46.6559C226.651 61.1983 217.424 81.261 208.606 106.844C199.922 132.024 193.681 156.26 189.882 179.555C181.47 228.971 177.264 263.306 177.264 282.561V307H146.736Z" fill="#F3F1EC"/>
</svg>
