<svg width="259" height="326" viewBox="0 0 259 326" fill="none" xmlns="http://www.w3.org/2000/svg">
<path d="M221.793 253.278V273.699H213.793C209.075 273.699 205.743 273.148 203.676 272.151L203.241 273.051L203.676 272.151C201.506 271.103 199.528 269.687 197.743 267.896L197.74 267.894C196.198 266.359 194.813 264.225 193.607 261.448L193.603 261.439C192.758 259.546 192.293 256.586 192.293 252.455V88.1761C192.293 77.1327 191.253 63.9586 189.181 48.6612L189.18 48.6604C188.024 40.1791 185.188 31.9318 180.684 23.9222C176.522 16.4104 172.444 10.7122 168.437 6.87977C164.432 3.04994 160.408 1.00014 156.379 1C152.238 1.00014 147.847 2.92816 143.23 6.57016C138.606 10.2178 133.669 15.6514 128.417 22.83L128.414 22.8338C123.772 29.2422 119.962 36.6834 116.977 45.1477C114.768 36.1969 112.216 29.1098 109.304 23.9219C105.143 16.4103 101.065 10.7121 97.0575 6.87977C93.053 3.04994 89.0291 1.00014 85 1C81.3412 1.00015 77.3265 2.96188 72.9919 6.58832C68.6373 10.2315 63.8369 15.6581 58.5895 22.83L58.5867 22.8338C53.9373 29.2522 50.1227 36.7065 47.1356 45.1871C45.1531 37.45 42.6101 30.3772 39.5032 23.9726L39.5032 23.9726L39.4994 23.965C36.3601 17.6316 32.7379 12.2734 28.6246 7.90536L28.3285 7.59091H27.8966H4H2.01045L3.19749 9.18754C10.9032 19.5522 16.3271 29.7789 19.4942 39.8677C25.0438 57.5471 27.8275 77.8198 27.8276 100.699V252.455V253.455H28.8276H52.1034H53.1034V252.455V112.233C53.1034 94.9037 56.5409 78.5661 63.4128 63.2096L63.4129 63.2094C67.8004 53.3981 71.6881 46.0921 75.0736 41.2539C76.7673 38.8332 78.3088 37.0692 79.6936 35.9198C81.0885 34.762 82.228 34.3069 83.1379 34.3068C85.0326 34.3069 87.0395 35.7719 89.0436 39.5433C91.0203 43.263 92.8206 48.9208 94.4176 56.5792L94.4189 56.5852C96.5686 66.5863 97.6551 81.2763 97.6552 100.699V252.455V253.455H98.6552H121.931H122.931V252.455V112.233C122.931 94.9037 126.368 78.5661 133.24 63.2096L133.24 63.2094C137.628 53.398 141.516 46.0921 144.901 41.2539C146.595 38.8332 148.136 37.0692 149.521 35.9198C150.916 34.762 152.056 34.3069 152.965 34.3068C154.802 34.3069 156.784 35.7621 158.794 39.5433C160.772 43.2658 162.598 48.9263 164.247 56.5854L164.247 56.5874C166.396 66.4769 167.483 81.1653 167.483 100.699V252.29C167.483 259.633 168.53 266.128 170.65 271.756L170.653 271.762C172.77 277.272 175.946 282.27 180.169 286.754C183.989 290.811 188.751 294.176 194.435 296.859C199.479 299.252 206.056 300.415 214.103 300.415H221.793V321V323.452L223.508 321.699L256.715 287.756L257.401 287.055L256.713 286.356L223.506 252.577L221.793 250.835V253.278Z" fill="#F3F1EC" stroke="#F3F1EC" stroke-width="2"/>
</svg>
