<svg width="319" height="319" viewBox="0 0 319 319" fill="none" xmlns="http://www.w3.org/2000/svg">
<path d="M65.8138 76.4341L65.8137 76.4339C62.1465 67.4912 56.9173 59.526 50.1269 52.5395L49.9834 52.6789L50.1269 52.5395C43.8768 46.1095 36.2026 40.8002 27.1073 36.61C19.272 32.9966 10.3015 31.1806 0.2 31.1567V0.200181C14.0495 0.225013 26.8234 2.79827 38.5244 7.9176C50.8274 13.3427 61.7785 20.9233 71.3786 30.6607C81.1129 40.5369 88.5482 51.8726 93.6857 64.6689L93.6863 64.6702C97.3532 73.6135 102.583 81.5787 109.373 88.5647C115.623 94.9952 123.297 100.304 132.393 104.494C140.279 108.132 149.317 109.948 159.5 109.948C169.278 109.948 178.313 108.131 186.603 104.496C195.296 100.723 202.971 95.4122 209.627 88.5647C216.417 81.5787 221.646 73.6135 225.314 64.6702L225.314 64.6689C230.451 51.8726 237.887 40.5369 247.621 30.6607C257.221 20.9235 268.172 13.3429 280.475 7.91783C292.176 2.79834 304.95 0.225014 318.8 0.200181V31.1567C308.698 31.1806 299.728 32.9966 291.893 36.61C282.797 40.8002 275.123 46.1095 268.873 52.5395C262.082 59.526 256.853 67.4912 253.186 76.434L253.186 76.4346C248.048 89.0924 240.613 100.429 230.878 110.444C226.149 115.309 219.998 120.248 212.421 125.259L212.169 125.426L212.421 125.593C219.998 130.605 226.149 135.543 230.878 140.407C240.612 150.423 248.048 161.76 253.186 174.417C258.187 186.934 260.689 200.357 260.689 214.687C260.689 228.599 258.188 241.812 253.186 254.33C247.913 267.128 240.477 278.464 230.878 288.34C221.278 298.078 210.327 305.658 198.024 311.082C186.267 316.227 173.426 318.8 159.5 318.8C144.894 318.8 132.056 316.226 120.979 311.084C108.131 305.101 97.1794 297.519 88.1224 288.34C78.523 278.464 71.0871 267.128 65.8141 254.331C60.8121 241.813 58.3108 228.599 58.3108 214.687C58.3108 200.357 60.8125 186.934 65.8144 174.416C71.2232 160.922 78.6583 149.588 88.1182 140.412L88.119 140.411C93.9338 134.707 100.154 129.768 106.779 125.595L107.05 125.424L106.777 125.256C100.018 121.083 93.7989 116.146 88.1207 110.443L88.1204 110.442C78.6583 100.986 71.2226 89.6508 65.8138 76.4341ZM186.608 146.358L186.604 146.356C178.314 142.721 169.278 140.904 159.5 140.904C149.722 140.904 140.686 142.721 132.396 146.356L132.392 146.358C123.973 150.27 116.301 155.579 109.377 162.283L109.377 162.283L109.371 162.29C102.312 169.831 97.0827 177.795 93.686 186.182L93.6857 186.183C90.1536 194.988 88.3884 204.491 88.3885 214.687C88.3884 224.468 90.154 233.76 93.6857 242.565L93.686 242.565C97.0827 250.953 102.312 258.917 109.371 266.458L109.37 266.458L109.377 266.465C116.301 273.169 123.973 278.478 132.392 282.39L132.396 282.392C140.686 286.027 149.722 287.844 159.5 287.844C169.278 287.844 178.314 286.027 186.604 282.392L186.608 282.39C195.027 278.478 202.699 273.169 209.623 266.465L209.623 266.465L209.629 266.458C216.687 258.917 221.917 250.953 225.314 242.565L225.314 242.565C228.846 233.76 230.611 224.468 230.611 214.687C230.611 204.491 228.846 194.988 225.314 186.183L225.314 186.182C221.917 177.795 216.687 169.831 209.629 162.29L209.63 162.29L209.623 162.283C202.699 155.579 195.027 150.27 186.608 146.358Z" fill="#F3F1EC" stroke="#D9D9D9" stroke-width="0.4"/>
</svg>
