<svg width="300" height="300" viewBox="0 0 294 198" fill="none" xmlns="http://www.w3.org/2000/svg">
<path d="M75.8724 45.335L75.7377 45.1285L75.5293 45.2604L14.8949 83.6335L0.562054 61.7047L84.0225 9.01766L106.303 43.4681L106.437 43.6757L106.646 43.5438L167.461 5.16251L189.741 39.613L189.876 39.8206L190.085 39.6886L250.899 1.30714L287.648 57.8935L265.21 72.0681L242.749 37.6248L242.614 37.4182L242.406 37.5501L181.771 75.9231L159.311 41.4799L159.176 41.2733L158.967 41.4052L98.3332 79.7782L75.8724 45.335ZM81.1386 159.312L81.0039 159.105L80.7955 159.237L20.161 197.61L5.82816 175.681L89.2886 122.994L111.569 157.445L111.704 157.652L111.913 157.52L172.727 119.139L195.007 153.59L195.142 153.797L195.351 153.665L256.165 115.284L292.914 171.87L270.476 186.045L248.015 151.601L247.88 151.395L247.672 151.527L187.037 189.9L164.577 155.457L164.442 155.25L164.234 155.382L103.599 193.755L81.1386 159.312Z" fill="#F3F1EC" stroke="#E8E8E8" stroke-width="0.5"/>
</svg>
