<svg width="414" height="346" viewBox="0 0 414 346" fill="none" xmlns="http://www.w3.org/2000/svg">
<path d="M275.794 253.184C288.134 241.013 297.585 227.159 304.145 211.619C310.704 195.972 313.984 179.455 313.984 162.068C313.984 146.964 313.039 135.989 311.149 129.143C308.258 118.602 304.256 113.332 299.142 113.332C296.251 113.332 292.193 118.439 286.967 128.654C279.518 143.215 275.793 159.515 275.794 177.553V253.184ZM255.781 298.171C251 300.671 246.108 303.007 241.105 305.18C228.764 310.505 215.311 313.928 200.746 315.449V290.836C211.753 289.315 222.037 286.544 231.599 282.524C238.492 279.59 244.996 276.221 251.111 272.418C250.889 269.918 250.778 267.31 250.778 264.594V114.636C250.778 95.2935 249.61 80.678 247.276 70.7893C243.718 55.5764 239.326 47.9698 234.101 47.9696C228.764 47.9698 221.37 57.6953 211.92 77.1462C204.471 92.4682 200.746 108.768 200.746 126.046V264.757H175.731V114.636C175.73 95.4021 174.563 80.7867 172.228 70.7893C168.782 55.5764 164.39 47.9698 159.053 47.9696C153.717 47.9698 146.323 57.6953 136.873 77.1462C129.424 92.4682 125.699 108.768 125.699 126.046V264.757H100.683V114.636C100.683 91.9249 97.6815 71.7675 91.6778 54.1635C88.2311 44.0579 82.3385 33.8433 74 23.5199H99.6828C104.019 27.7581 107.855 32.9741 111.19 39.1677C114.97 46.3398 117.972 54.3811 120.196 63.2914C123.531 53.6204 127.978 45.2532 133.537 38.1897C144.767 24.0635 153.939 17.0003 161.055 17C168.948 17.0003 177.343 24.3895 186.237 39.1677C189.684 44.8186 192.686 52.8597 195.243 63.2914C198.578 53.6204 203.025 45.2532 208.585 38.1897C219.814 24.0635 229.542 17.0003 237.77 17C245.663 17.0003 254.058 24.3895 262.952 39.1677C267.733 46.9918 270.735 55.0331 271.958 63.2914C273.625 74.7015 274.737 87.6869 275.293 102.248C277.517 97.7928 280.296 93.6092 283.632 89.6971C291.748 80.2434 298.863 75.5165 304.979 75.5162C313.873 75.5165 321.6 84.101 328.16 101.27C335.386 120.178 339 140.444 339 162.068C339 183.258 335.108 202.872 327.326 220.91C318.876 240.47 307.258 257.313 292.471 271.44C287.801 275.895 282.909 280.079 277.795 283.991C279.018 289.098 280.63 294.042 282.631 298.823C286.967 309.147 293.693 318.872 302.811 328H270.457C265.454 320.176 261.785 313.547 259.45 308.114C258.116 304.854 256.893 301.54 255.781 298.171Z" fill="#F3F1EC"/>
</svg>
