<svg width="272" height="315" viewBox="0 0 272 315" fill="none" xmlns="http://www.w3.org/2000/svg">
<path d="M235.145 196.619C241.704 180.972 244.984 164.455 244.984 147.068C244.984 131.964 244.039 120.989 242.149 114.143C239.258 103.602 235.256 98.3319 230.142 98.3318C227.251 98.3319 223.193 103.439 217.967 113.654M235.145 196.619L234.223 196.231C234.223 196.231 234.223 196.232 234.223 196.232M235.145 196.619L234.223 196.233C234.223 196.233 234.223 196.232 234.223 196.232M235.145 196.619C228.763 211.736 219.646 225.259 207.794 237.188V235.764M234.223 196.232C240.729 180.71 243.984 164.325 243.984 147.068C243.984 131.976 243.037 121.116 241.185 114.409L241.185 114.407C239.754 109.19 238.073 105.378 236.183 102.889C234.31 100.423 232.298 99.3318 230.142 99.3318C229.714 99.3318 229.124 99.524 228.347 100.095C227.576 100.662 226.697 101.545 225.713 102.784C223.745 105.261 221.459 109.024 218.858 114.109L217.967 113.654M234.223 196.232C228.02 210.924 219.213 224.1 207.794 235.764M217.967 113.654C210.518 128.215 206.793 144.515 206.794 162.553V236.774C207.129 236.439 207.462 236.102 207.794 235.764M217.967 113.654L218.858 114.109C211.488 128.515 207.793 144.656 207.794 162.553V235.764M172.504 291.098C177.166 289.072 181.732 286.906 186.203 284.598C187.222 287.606 188.329 290.571 189.525 293.493L189.528 293.501L189.531 293.509C191.896 299.012 195.596 305.692 200.614 313.539L200.909 314H201.457H233.811H236.223L234.518 312.293C225.479 303.243 218.832 293.623 214.553 283.436C212.655 278.902 211.111 274.219 209.92 269.387C214.876 265.568 219.623 261.493 224.161 257.163L224.162 257.163C239.049 242.94 250.743 225.984 259.244 206.307L259.244 206.307C267.085 188.133 271 168.383 271 147.068C271 125.33 267.367 104.942 260.094 85.913C256.793 77.2735 253.168 70.7074 249.188 66.2858C245.195 61.8496 240.788 59.5164 235.979 59.5162C232.66 59.5164 229.161 60.7979 225.502 63.2287C221.842 65.6604 217.966 69.278 213.873 74.0457L213.871 74.0483C211.304 77.0583 209.06 80.2289 207.14 83.5597C206.544 70.4411 205.48 58.6359 203.947 48.1468L203.947 48.1449C202.703 39.7422 199.65 31.5757 194.807 23.6493C190.333 16.2158 185.95 10.5797 181.646 6.7915C177.342 3.00259 173.044 1.00014 168.77 1C164.368 1.00014 159.675 2.88749 154.715 6.48841C149.751 10.0926 144.448 15.4651 138.802 22.5675L138.799 22.5713C133.76 28.9733 129.632 36.4192 126.408 44.8994C124.018 35.9281 121.253 28.8321 118.093 23.6496C113.618 16.216 109.235 10.5798 104.931 6.7915C100.627 3.00259 96.3295 1.00014 92.0548 1C88.1757 1.00014 83.8885 2.9169 79.2286 6.5053C74.5529 10.1058 69.395 15.4719 63.7546 22.5675L63.7516 22.5713C58.7061 28.9822 54.5736 36.44 51.3476 44.9349C49.2062 37.1844 46.4499 30.1052 43.0747 23.7015L43.0747 23.7014L43.0705 23.6936C39.6946 17.4248 35.8006 12.124 31.3818 7.80479L31.0904 7.51992H30.6828H5H2.9068L4.22207 9.14827C12.5042 19.4018 18.3304 29.5149 21.7313 39.4863C27.6928 56.9663 30.6834 77.0113 30.6834 99.6357V249.757V250.757H31.6834H56.6992H57.6992V249.757V111.046C57.6991 93.9172 61.3903 77.7672 68.7722 62.5835L68.7723 62.5832C73.4871 52.8793 77.6642 45.654 81.3018 40.8691C83.1212 38.4759 84.7792 36.7287 86.2724 35.5879C87.7725 34.4418 89.0244 33.9696 90.0535 33.9696C92.1757 33.9697 94.346 35.4721 96.4837 39.1747C98.6047 42.8484 100.538 48.4383 102.253 56.0103L102.255 56.0167C104.563 65.9008 105.73 80.4246 105.731 99.6357V249.757V250.757H106.731H131.746H132.746V249.757V111.046C132.746 93.9172 136.437 77.7672 143.819 62.5835L143.82 62.5832C148.534 52.8793 152.711 45.654 156.349 40.8691C158.168 38.4759 159.826 36.7287 161.32 35.5879C162.82 34.4418 164.072 33.9696 165.101 33.9696C167.161 33.9697 169.304 35.4629 171.447 39.1747C173.57 42.8514 175.531 48.4441 177.302 56.017L177.302 56.0191C179.61 65.7926 180.778 80.3147 180.778 99.6357V249.594C180.778 252.116 180.873 254.548 181.063 256.891C175.146 260.533 168.862 263.771 162.212 266.602C152.736 270.586 142.536 273.336 131.609 274.846L130.746 274.965V275.836V300.449V301.559L131.85 301.444C146.507 299.913 160.059 296.467 172.501 291.098L172.504 291.098Z" fill="#F3F1EC" stroke="#D9D9D9" stroke-width="2"/>
</svg>
