<svg width="347" height="316" viewBox="0 0 347 316" fill="none" xmlns="http://www.w3.org/2000/svg">
<mask id="path-1-inside-1_229_7" fill="white">
<path d="M132.8 211.21H0V176.28H80.0054C74.4235 169.139 69.772 161.377 66.0509 152.993C60.3141 139.798 57.4456 125.826 57.4457 111.077C57.4456 95.8636 60.3141 81.6588 66.0509 68.4628C72.0978 54.8015 80.6255 42.7701 91.6341 32.3685C102.642 21.9673 115.201 13.8946 129.311 8.15033C142.8 2.71705 157.53 0.000298069 173.5 0C190.245 0.000298069 204.975 2.71705 217.689 8.15033C232.418 14.5157 244.977 22.5884 255.366 32.3685C266.374 42.7701 274.902 54.8015 280.949 68.4628C286.686 81.6588 289.554 95.8636 289.554 111.077C289.554 125.826 286.686 139.798 280.949 152.993C277.228 161.377 272.576 169.139 266.995 176.28H347V211.21H213.968V176.28C219.859 173.02 225.441 169.061 230.713 164.404C238.31 157.728 244.28 149.501 248.621 139.72C252.652 130.561 254.668 120.936 254.668 110.845C254.668 100.599 252.652 90.8959 248.621 81.7362C244.435 72.577 238.465 64.3491 230.713 57.0523C223.426 50.3771 214.665 44.8659 204.432 40.5188C195.594 36.7932 185.283 34.9303 173.5 34.93C162.336 34.9303 152.026 36.7932 142.568 40.5188C132.799 44.4002 124.039 49.9113 116.287 57.0523C108.534 64.3491 102.565 72.577 98.3787 81.7362C94.3473 90.8959 92.3316 100.599 92.3318 110.845C92.3316 120.936 94.3473 130.561 98.3787 139.72C102.565 148.88 108.534 157.107 116.287 164.404C121.093 168.906 126.598 172.865 132.8 176.28V211.21ZM0 316V281.07H347V316H0Z"/>
</mask>
<path d="M132.8 211.21H0V176.28H80.0054C74.4235 169.139 69.772 161.377 66.0509 152.993C60.3141 139.798 57.4456 125.826 57.4457 111.077C57.4456 95.8636 60.3141 81.6588 66.0509 68.4628C72.0978 54.8015 80.6255 42.7701 91.6341 32.3685C102.642 21.9673 115.201 13.8946 129.311 8.15033C142.8 2.71705 157.53 0.000298069 173.5 0C190.245 0.000298069 204.975 2.71705 217.689 8.15033C232.418 14.5157 244.977 22.5884 255.366 32.3685C266.374 42.7701 274.902 54.8015 280.949 68.4628C286.686 81.6588 289.554 95.8636 289.554 111.077C289.554 125.826 286.686 139.798 280.949 152.993C277.228 161.377 272.576 169.139 266.995 176.28H347V211.21H213.968V176.28C219.859 173.02 225.441 169.061 230.713 164.404C238.31 157.728 244.28 149.501 248.621 139.72C252.652 130.561 254.668 120.936 254.668 110.845C254.668 100.599 252.652 90.8959 248.621 81.7362C244.435 72.577 238.465 64.3491 230.713 57.0523C223.426 50.3771 214.665 44.8659 204.432 40.5188C195.594 36.7932 185.283 34.9303 173.5 34.93C162.336 34.9303 152.026 36.7932 142.568 40.5188C132.799 44.4002 124.039 49.9113 116.287 57.0523C108.534 64.3491 102.565 72.577 98.3787 81.7362C94.3473 90.8959 92.3316 100.599 92.3318 110.845C92.3316 120.936 94.3473 130.561 98.3787 139.72C102.565 148.88 108.534 157.107 116.287 164.404C121.093 168.906 126.598 172.865 132.8 176.28V211.21ZM0 316V281.07H347V316H0Z" fill="#F3F1EC"/>
<path d="M132.8 211.21V211.61H133.2V211.21H132.8ZM0 211.21H-0.4V211.61H0V211.21ZM0 176.28V175.88H-0.4V176.28H0ZM80.0054 176.28V176.68H80.8257L80.3205 176.034L80.0054 176.28ZM66.0509 152.993L65.6841 153.153L65.6853 153.156L66.0509 152.993ZM57.4457 111.077H57.8457V111.077L57.4457 111.077ZM66.0509 68.4628L65.6852 68.3009L65.6841 68.3033L66.0509 68.4628ZM91.634 32.3685L91.3593 32.0777L91.3593 32.0777L91.634 32.3685ZM129.311 8.15033L129.162 7.7793L129.16 7.77986L129.311 8.15033ZM173.5 0L173.5 -0.4H173.5V0ZM217.689 8.15033L217.848 7.78315L217.846 7.78251L217.689 8.15033ZM255.366 32.3685L255.641 32.0777L255.64 32.0772L255.366 32.3685ZM280.949 68.4628L281.316 68.3033L281.315 68.3009L280.949 68.4628ZM289.554 111.077L289.954 111.077V111.077L289.554 111.077ZM280.949 152.993L281.315 153.156L281.316 153.153L280.949 152.993ZM266.995 176.28L266.68 176.034L266.174 176.68H266.995V176.28ZM347 176.28H347.4V175.88H347V176.28ZM347 211.21V211.61H347.4V211.21H347ZM213.968 211.21H213.568V211.61H213.968V211.21ZM213.968 176.28L213.774 175.93L213.568 176.044V176.28H213.968ZM230.713 164.404L230.449 164.103L230.448 164.104L230.713 164.404ZM248.621 139.72L248.987 139.882L248.987 139.881L248.621 139.72ZM254.668 110.845L255.068 110.845V110.844L254.668 110.845ZM248.621 81.7362L248.987 81.575L248.985 81.5699L248.621 81.7362ZM230.713 57.0523L230.987 56.761L230.983 56.7574L230.713 57.0523ZM204.432 40.5188L204.589 40.1506L204.588 40.1502L204.432 40.5188ZM173.5 34.93L173.5 34.53H173.5V34.93ZM142.568 40.5188L142.421 40.1466L142.42 40.1471L142.568 40.5188ZM116.287 57.0523L116.016 56.7581L116.013 56.761L116.287 57.0523ZM98.3787 81.7362L98.0148 81.5699L98.0126 81.5751L98.3787 81.7362ZM92.3318 110.845L92.7318 110.845V110.845H92.3318ZM98.3787 139.72L98.0125 139.881L98.0149 139.886L98.3787 139.72ZM116.287 164.404L116.013 164.695L116.013 164.696L116.287 164.404ZM132.8 176.28H133.2V176.044L132.993 175.93L132.8 176.28ZM0 316H-0.4V316.4H0V316ZM0 281.07V280.67H-0.4V281.07H0ZM347 281.07H347.4V280.67H347V281.07ZM347 316V316.4H347.4V316H347ZM132.8 210.81H0V211.61H132.8V210.81ZM0.4 211.21V176.28H-0.4V211.21H0.4ZM0 176.68H80.0054V175.88H0V176.68ZM80.3205 176.034C74.7591 168.919 70.1245 161.185 66.4165 152.831L65.6853 153.156C69.4196 161.569 74.0879 169.359 79.6902 176.526L80.3205 176.034ZM66.4178 152.834C60.7033 139.69 57.8456 125.772 57.8457 111.077L57.0457 111.077C57.0456 125.879 59.9248 139.906 65.6841 153.153L66.4178 152.834ZM57.8457 111.077C57.8456 95.9153 60.704 81.7651 66.4178 68.6223L65.6841 68.3033C59.9241 81.5525 57.0456 95.812 57.0457 111.077L57.8457 111.077ZM66.4167 68.6247C72.4418 55.0127 80.9382 43.0249 91.9088 32.6592L91.3593 32.0777C80.3127 42.5153 71.7538 54.5904 65.6852 68.3009L66.4167 68.6247ZM91.9088 32.6592C102.881 22.2923 115.398 14.2466 129.462 8.52081L129.16 7.77986C115.005 13.5427 102.404 21.6424 91.3593 32.0777L91.9088 32.6592ZM129.46 8.52136C142.898 3.10901 157.576 0.400297 173.5 0.4L173.5 -0.4C157.484 -0.399701 142.703 2.32509 129.162 7.7793L129.46 8.52136ZM173.5 0.4C190.202 0.400297 204.877 3.11008 217.532 8.51815L217.846 7.78251C205.073 2.32402 190.288 -0.399701 173.5 -0.4L173.5 0.4ZM217.53 8.51751C232.222 14.8667 244.741 22.9151 255.092 32.6597L255.64 32.0772C245.214 22.2616 232.614 14.1646 217.848 7.78315L217.53 8.51751ZM255.091 32.6592C266.061 43.0249 274.558 55.0127 280.583 68.6247L281.315 68.3009C275.246 54.5904 266.687 42.5153 255.641 32.0777L255.091 32.6592ZM280.582 68.6223C286.296 81.7651 289.154 95.9153 289.154 111.077L289.954 111.077C289.954 95.812 287.076 81.5525 281.316 68.3033L280.582 68.6223ZM289.154 111.077C289.154 125.772 286.296 139.69 280.582 152.834L281.316 153.153C287.075 139.906 289.954 125.879 289.954 111.077L289.154 111.077ZM280.583 152.831C276.875 161.185 272.241 168.919 266.68 176.034L267.31 176.526C272.912 169.359 277.58 161.569 281.315 153.156L280.583 152.831ZM266.995 176.68H347V175.88H266.995V176.68ZM346.6 176.28V211.21H347.4V176.28H346.6ZM347 210.81H213.968V211.61H347V210.81ZM214.368 211.21V176.28H213.568V211.21H214.368ZM214.161 176.63C220.08 173.355 225.685 169.38 230.978 164.704L230.448 164.104C225.197 168.743 219.639 172.685 213.774 175.93L214.161 176.63ZM230.977 164.704C238.62 157.989 244.623 149.713 248.987 139.882L248.256 139.558C243.936 149.288 238 157.468 230.449 164.103L230.977 164.704ZM248.987 139.881C253.041 130.671 255.068 120.991 255.068 110.845L254.268 110.844C254.268 120.881 252.264 130.451 248.255 139.559L248.987 139.881ZM255.068 110.844C255.068 100.544 253.041 90.7867 248.987 81.5751L248.255 81.8973C252.263 91.005 254.268 100.653 254.268 110.845L255.068 110.844ZM248.985 81.5699C244.776 72.361 238.775 64.0912 230.987 56.7611L230.439 57.3436C238.156 64.6069 244.094 72.793 248.258 81.9025L248.985 81.5699ZM230.983 56.7574C223.658 50.0478 214.858 44.5133 204.589 40.1506L204.276 40.8869C214.472 45.2185 223.193 50.7063 230.443 57.3473L230.983 56.7574ZM204.588 40.1502C195.691 36.3997 185.325 34.5303 173.5 34.53L173.5 35.33C185.242 35.3303 195.498 37.1867 204.277 40.8874L204.588 40.1502ZM173.5 34.53C162.291 34.5303 151.93 36.4009 142.421 40.1466L142.714 40.891C152.121 37.1855 162.381 35.3303 173.5 35.33L173.5 34.53ZM142.42 40.1471C132.606 44.0466 123.804 49.584 116.016 56.7581L116.558 57.3465C124.274 50.2386 132.993 44.7538 142.715 40.8905L142.42 40.1471ZM116.013 56.761C108.225 64.0912 102.224 72.361 98.0149 81.5699L98.7425 81.9025C102.906 72.793 108.844 64.6069 116.561 57.3436L116.013 56.761ZM98.0126 81.5751C93.9583 90.7867 91.9316 100.544 91.9318 110.845L92.7318 110.845C92.7316 100.653 94.7363 91.005 98.7448 81.8973L98.0126 81.5751ZM91.9318 110.845C91.9316 120.991 93.9587 130.671 98.0126 139.881L98.7448 139.559C94.736 130.451 92.7316 120.881 92.7318 110.845L91.9318 110.845ZM98.0149 139.886C102.224 149.096 108.225 157.365 116.013 164.695L116.561 164.113C108.844 156.85 102.906 148.664 98.7425 139.554L98.0149 139.886ZM116.013 164.696C120.846 169.222 126.378 173.2 132.607 176.63L132.993 175.93C126.817 172.529 121.341 168.59 116.56 164.112L116.013 164.696ZM132.4 176.28V211.21H133.2V176.28H132.4ZM0.4 316V281.07H-0.4V316H0.4ZM0 281.47H347V280.67H0V281.47ZM346.6 281.07V316H347.4V281.07H346.6ZM347 315.6H0V316.4H347V315.6Z" fill="#D9D9D9" mask="url(#path-1-inside-1_229_7)"/>
</svg>
