<svg width="318" height="257" viewBox="0 0 318 257" fill="none" xmlns="http://www.w3.org/2000/svg">
<path d="M38.3789 203.019C69.7599 216.851 104.584 223.766 142.847 223.765C166.89 223.766 189.689 221.015 211.244 215.512L211.616 215.417L211.324 215.167C209.424 213.536 207.67 211.905 206.063 210.275C199.486 203.456 194.667 196.196 191.601 188.497L191.601 188.496C188.387 180.497 186.78 171.978 186.781 162.938C186.78 154.047 188.387 145.602 191.601 137.602L191.601 137.601C194.961 129.157 199.78 121.899 206.059 115.827L206.059 115.827C212.931 109.154 220.016 104.266 227.315 101.156L227.316 101.156C234.907 97.8988 243.231 96.2687 252.29 96.2685C261.79 96.2687 270.112 97.8993 277.261 101.154L277.343 100.972L277.261 101.154C285.738 105.009 292.822 109.899 298.517 115.822L298.517 115.822C305.094 122.642 309.913 129.902 312.979 137.601L312.98 137.602C316.193 145.602 317.8 154.047 317.8 162.938C317.8 171.829 316.193 180.348 312.979 188.497C309.475 197.381 303.928 205.007 296.335 211.376C285.655 220.278 273.438 227.698 259.683 233.635L259.762 233.819L259.683 233.635C223.961 249.078 185.017 256.8 142.847 256.8C99.6511 256.8 60.708 249.077 26.0142 233.636C17.1189 229.643 8.51411 225.429 0.2 220.994L0.2 182.251C13.4292 190.783 26.1554 197.706 38.3789 203.019ZM38.3789 203.019C38.3787 203.019 38.3784 203.019 38.3782 203.019L38.4589 202.836L38.3792 203.02C38.3791 203.019 38.379 203.019 38.3789 203.019ZM239.678 194.324L239.678 194.324L239.685 194.327C243.521 195.973 247.724 196.795 252.29 196.795C256.856 196.795 261.059 195.973 264.896 194.327L264.899 194.325C268.876 192.533 272.485 190.067 275.725 186.931L275.728 186.928C278.677 183.937 281.107 180.275 283.021 175.946L283.023 175.94C284.645 171.903 285.455 167.568 285.455 162.938C285.455 158.455 284.644 154.195 283.023 150.158L283.022 150.155C281.4 146.267 278.968 142.607 275.731 139.173L275.728 139.17C272.924 136.327 269.314 133.862 264.902 131.774L264.896 131.771C261.059 130.125 256.856 129.303 252.29 129.303C247.724 129.303 243.521 130.125 239.685 131.771L239.681 131.773C235.704 133.566 232.095 136.031 228.856 139.167L228.853 139.17C225.903 142.161 223.473 145.823 221.56 150.152L221.56 150.152L221.557 150.158C219.936 154.195 219.125 158.455 219.126 162.938C219.125 167.568 219.935 171.903 221.557 175.94L221.558 175.943C223.18 179.831 225.612 183.492 228.85 186.925L228.853 186.928C231.656 189.771 235.266 192.236 239.678 194.324ZM106.676 41.8335C108.576 43.4647 110.33 45.0951 111.937 46.7248C118.514 53.5443 123.333 60.804 126.399 68.5033L126.399 68.5039C129.612 76.5035 131.219 85.0225 131.219 94.0624C131.219 102.954 129.612 111.398 126.399 119.398L126.399 119.399C123.039 127.844 118.22 135.101 111.941 141.173L111.941 141.173C105.069 147.846 97.9831 152.735 90.6846 155.844L90.6841 155.844C83.0927 159.102 74.7687 160.732 65.7097 160.731C56.2093 160.732 47.8875 159.101 40.7394 155.846L40.7393 155.846C32.2616 151.991 25.1777 147.102 19.4835 141.178L19.4833 141.178C12.9058 134.358 8.08648 127.099 5.02064 119.399L5.02042 119.398C1.80704 111.398 0.2 102.954 0.2 94.0624C0.2 85.1715 1.80704 76.6521 5.02089 68.5027C8.52443 59.6192 14.0715 51.9936 21.6655 45.6242C32.3448 36.7219 44.5614 29.302 58.317 23.3649L58.3171 23.3648C94.0383 7.92266 132.983 0.200292 175.153 0.2C218.349 0.200292 257.292 7.92295 291.986 23.364C300.881 27.3576 309.486 31.5717 317.8 36.0064V74.749C304.57 66.2172 291.844 59.294 279.621 53.9805C248.24 40.149 213.416 33.2348 175.153 33.2345C151.11 33.2348 128.311 35.9856 106.756 41.4879L106.384 41.583L106.676 41.8335ZM78.3219 62.6761L78.322 62.676L78.3152 62.6731C74.4787 61.0271 70.2759 60.2053 65.7098 60.205C61.1433 60.2053 56.9407 61.0271 53.1043 62.6731L53.1043 62.6731L53.1009 62.6746C49.1233 64.4678 45.5147 66.933 42.2755 70.0688L42.2722 70.0721C39.3229 73.0636 36.8926 76.7251 34.9795 81.0536L34.9794 81.0535L34.9768 81.0599C33.3551 85.0975 32.5449 89.4323 32.545 94.0624C32.5449 98.5453 33.3554 102.806 34.9768 106.842L34.9778 106.845C36.5997 110.733 39.0313 114.394 42.2691 117.827L42.2722 117.83C45.0755 120.673 48.6857 123.138 53.0976 125.226L53.0975 125.226L53.1043 125.229C56.9407 126.875 61.1433 127.697 65.7098 127.697C70.2759 127.697 74.4787 126.875 78.3152 125.229L78.3185 125.227C82.296 123.435 85.9046 120.969 89.144 117.833L89.1473 117.83C92.0963 114.839 94.5267 111.177 96.44 106.848L96.4401 106.848L96.4427 106.842C98.064 102.806 98.8744 98.5453 98.8745 94.0625C98.8744 89.4323 98.0643 85.0975 96.4427 81.0599L96.4417 81.0574C94.8196 77.1693 92.3879 73.5087 89.1504 70.0752L89.1472 70.0721C86.3438 67.229 82.7337 64.7645 78.3219 62.6761Z" fill="#F3F1EC" stroke="#D9D9D9" stroke-width="0.4"/>
</svg>
