<svg width="414" height="346" viewBox="0 0 414 346" fill="none" xmlns="http://www.w3.org/2000/svg">
<path d="M216.16 234.773C213.573 231.043 211.131 227.105 208.832 222.961C197.194 201.961 191.374 178.821 191.375 153.538V136.131C191.374 111.54 189.866 92.9583 186.849 80.3861C182.251 61.0448 176.575 51.3741 169.822 51.3738C162.925 51.3741 153.371 63.7388 141.158 88.468C131.531 107.948 126.718 128.671 126.718 150.637V202.652H94.3894V136.131C94.3892 111.678 92.5214 93.0964 88.7858 80.3861C83.0384 61.0448 71.6157 51.3741 54.5176 51.3738H39V12H57.1039C78.7998 12.0003 95.395 21.3947 106.89 40.1833C113.212 50.5451 117.45 60.7685 119.606 70.8535C123.916 58.558 129.663 47.9202 136.847 38.94C151.359 20.9803 163.931 12.0003 174.564 12C184.765 12.0003 195.613 21.3947 207.108 40.1833C213.286 50.1307 217.165 60.3541 218.746 70.8535C221.619 90.0571 223.056 106.566 223.056 120.382V143.384C223.056 163.14 225.786 180.064 231.246 194.156C236.562 182.965 242.597 174.054 249.35 167.423C255.816 161.068 264.437 155.818 275.213 151.673C283.834 148.358 293.819 146.7 305.171 146.7C314.797 146.7 323.705 148.358 331.895 151.673C340.229 154.989 347.772 159.894 354.525 166.387C361.134 172.742 366.235 180.064 369.827 188.353C373.275 196.504 375 205.139 375 214.257C375 223.237 373.275 231.803 369.827 239.954C366.235 248.243 361.134 255.565 354.525 261.92C348.347 267.861 340.803 272.765 331.895 276.633C324.28 279.949 314.653 281.607 303.015 281.607C291.233 281.607 280.17 279.949 269.825 276.633C259.336 273.318 249.637 268.206 240.729 261.298C238.287 267.377 235.7 273.11 232.97 278.498C226.648 290.656 219.105 300.258 210.341 307.303C198.99 316.422 188.429 322.777 178.659 326.369C166.877 330.79 154.52 333 141.589 333H129.52V301.915H141.589C151.215 301.915 159.405 300.465 166.158 297.564C174.492 294.11 181.317 289.965 186.633 285.13C192.668 279.88 197.696 273.732 201.72 266.686C206.317 258.673 211.131 248.036 216.16 234.773ZM252.799 226.691C263.575 238.019 273.991 245.065 284.049 247.828C290.515 249.624 296.909 250.522 303.231 250.522C309.984 250.522 315.444 249.624 319.611 247.828C324.208 245.894 328.303 243.269 331.895 239.954C335.343 236.638 338.145 232.701 340.301 228.141C342.168 224.135 343.102 219.507 343.103 214.257C343.102 209.284 342.168 204.586 340.301 200.165C338.576 196.021 335.775 192.083 331.895 188.353C328.303 185.038 324.208 182.413 319.611 180.478C315.3 178.683 310.558 177.785 305.386 177.784C300.501 177.785 295.4 178.683 290.084 180.478C284.193 182.551 279.739 185.176 276.722 188.353C266.52 199.406 258.546 212.185 252.799 226.691Z" fill="#F3F1EC"/>
</svg>
