<svg width="336" height="321" viewBox="0 0 336 321" fill="none" xmlns="http://www.w3.org/2000/svg">
<path d="M177.384 222.745L177.347 222.844C172.316 236.112 167.498 246.76 162.893 254.786M177.384 222.745L162.72 254.686M177.384 222.745L177.324 222.659C174.742 218.934 172.303 215.003 170.007 210.864C158.386 189.896 152.574 166.789 152.575 141.538V124.131C152.574 99.5359 151.066 80.9354 148.043 68.3398L177.384 222.745ZM162.893 254.786L162.72 254.686M162.893 254.786C162.893 254.786 162.893 254.786 162.893 254.785L162.72 254.686M162.893 254.786C158.859 261.85 153.817 268.015 147.766 273.279M162.72 254.686C158.696 261.732 153.668 267.88 147.633 273.13M147.766 273.279C147.767 273.279 147.767 273.278 147.768 273.278L147.633 273.13M147.766 273.279C142.429 278.133 135.584 282.288 127.236 285.748M147.766 273.279C147.766 273.28 147.765 273.28 147.764 273.281L147.633 273.13M147.633 273.13L127.236 285.748M127.236 285.748C127.236 285.748 127.237 285.748 127.237 285.747L127.158 285.564L127.235 285.748C127.235 285.748 127.235 285.748 127.236 285.748ZM127.236 285.748C120.451 288.662 112.234 290.115 102.589 290.115H90.7196V320.8M127.236 285.748L90.7196 320.8M90.7196 320.8H102.589C115.497 320.8 127.83 318.594 139.588 314.181L139.59 314.181C149.333 310.599 159.875 304.257 171.215 295.148C179.954 288.122 187.481 278.544 193.793 266.406C196.52 261.024 199.103 255.297 201.544 249.224L201.643 248.978L201.852 249.14C210.742 256.034 220.419 261.134 230.885 264.443L230.886 264.443C241.209 267.752 252.252 269.407 264.015 269.407C275.636 269.407 285.233 267.751 292.816 264.45L292.895 264.633L292.816 264.45C301.705 260.59 309.227 255.698 315.387 249.776C321.977 243.439 327.062 236.14 330.643 227.876C334.081 219.75 335.8 211.211 335.8 202.257C335.8 193.165 334.08 184.557 330.643 176.431C327.062 168.167 321.977 160.868 315.387 154.531C308.651 148.055 301.13 143.165 292.822 139.859L292.82 139.859C284.656 136.554 275.774 134.9 266.171 134.9C254.839 134.9 244.878 136.555 236.285 139.86C225.527 143.998 216.932 149.234 210.49 155.565L210.35 155.423L210.49 155.566C203.758 162.176 197.736 171.066 192.427 182.241L192.228 182.661L192.06 182.228C186.589 168.107 183.856 151.158 183.856 131.384V108.382C183.856 94.5794 182.421 78.0805 179.548 58.8831M90.7196 320.8L179.746 58.8535M179.548 58.8831L179.746 58.8535M179.548 58.8831C179.548 58.8831 179.548 58.8832 179.548 58.8832L179.746 58.8535M179.548 58.8831C177.972 48.4133 174.103 38.2154 167.938 28.2889L167.937 28.2877C162.195 18.9026 156.622 11.8758 151.22 7.19726C145.817 2.51882 140.6 0.200164 135.564 0.2C130.304 0.200164 124.543 2.42171 118.276 6.89797C112.011 11.3736 105.253 18.0935 98.0032 27.0653M179.746 58.8535C178.165 48.3541 174.286 38.1307 168.108 28.1833C156.613 9.39474 145.765 0.000331569 135.564 0C124.931 0.000331569 112.359 8.98027 97.8473 26.94M98.0032 27.0653C98.0033 27.0652 98.0034 27.065 98.0035 27.0649L97.8473 26.94M98.0032 27.0653C98.0031 27.0654 98.003 27.0655 98.0029 27.0657L97.8473 26.94M98.0032 27.0653L80.7324 58.4933M97.8473 26.94C90.7334 35.8324 85.0284 46.3502 80.7324 58.4933M192.246 182.156L192.066 182.07C192.093 182.013 192.12 181.956 192.147 181.899C192.18 181.984 192.213 182.07 192.246 182.156ZM192.246 182.156L192.433 182.083C192.41 182.025 192.387 181.966 192.365 181.907C192.325 181.99 192.286 182.073 192.246 182.156ZM80.7324 58.4933C80.6899 58.6132 80.6477 58.7332 80.6055 58.8535M80.7324 58.4933C80.7555 58.5994 80.7784 58.7055 80.8011 58.8117L80.6055 58.8535M80.6055 58.8535C80.5789 58.7291 80.552 58.6047 80.5248 58.4803C80.4887 58.5825 80.4527 58.6848 80.4168 58.7873L80.6055 58.8535ZM213.566 214.736L213.613 214.617C219.368 200.089 227.356 187.289 237.575 176.217L237.577 176.215C240.623 173.007 245.108 170.368 251.018 168.29L251.02 168.289C256.354 166.487 261.476 165.585 266.386 165.584C271.582 165.585 276.35 166.487 280.688 168.294L280.688 168.294C285.307 170.237 289.421 172.875 293.031 176.206L293.034 176.209C296.929 179.955 299.749 183.914 301.486 188.088M213.566 214.736L301.301 188.165M213.566 214.736L213.654 214.829C224.443 226.171 234.89 233.245 244.996 236.021M213.566 214.736L213.799 214.691M301.486 188.088L301.301 188.165M301.486 188.088C301.485 188.088 301.485 188.088 301.485 188.087L301.301 188.165M301.486 188.088C303.364 192.535 304.302 197.258 304.303 202.257C304.302 207.531 303.364 212.189 301.482 216.226L301.482 216.227C299.316 220.807 296.501 224.764 293.034 228.098L293.031 228.101C289.422 231.432 285.307 234.069 280.689 236.012M301.301 188.165C303.168 192.586 304.102 197.284 304.103 202.257C304.102 207.507 303.168 212.135 301.301 216.141C299.145 220.701 296.343 224.638 292.895 227.954C289.303 231.269 285.208 233.894 280.611 235.828M280.689 236.012C280.689 236.012 280.69 236.012 280.69 236.012L280.611 235.828M280.689 236.012C276.488 237.823 270.999 238.722 264.231 238.722C257.89 238.722 251.478 237.822 244.996 236.021M280.689 236.012C280.689 236.012 280.689 236.012 280.688 236.013L280.611 235.828M280.611 235.828C276.444 237.624 270.984 238.522 264.231 238.522C257.909 238.522 251.515 237.624 245.049 235.828M213.799 214.691C224.575 226.019 234.991 233.065 245.049 235.828M213.799 214.691C219.546 200.185 227.52 187.406 237.722 176.353L213.799 214.691ZM245.049 235.828L244.996 236.021C244.996 236.021 244.996 236.021 244.996 236.021M245.049 235.828L244.996 236.021M87.7178 190.452H87.5178V190.652H87.7178V190.452ZM55.5894 190.652V190.452H55.3894V190.652H55.5894ZM0.2 39.3738V39.1738H0V39.3738H0.2ZM0 0.2H0.2V0H0V0.2ZM67.8897 28.1833L67.7189 28.2875C67.719 28.2876 67.719 28.2877 67.7191 28.2877L67.8897 28.1833Z" fill="#F3F1EC" stroke="#D9D9D9" stroke-width="0.4"/>
</svg>
