<svg width="414" height="346" viewBox="0 0 414 346" fill="none" xmlns="http://www.w3.org/2000/svg">
<path d="M293.847 291.246V291.42L294.019 291.444C317.166 294.673 339.76 299.092 361.8 304.701V335.743C312.664 323.255 260.897 317.012 206.5 317.012C152.103 317.012 100.336 323.255 51.2 335.743L51.2 304.701C73.2401 299.092 95.8336 294.673 118.981 291.444L119.153 291.42V291.246L119.153 53.754V53.58L118.981 53.556C95.8336 50.3276 73.2401 45.9087 51.2 40.299V9.25725C100.336 21.7452 152.103 27.9885 206.5 27.9883C260.897 27.9885 312.664 21.7452 361.8 9.25725V40.299C339.76 45.9087 317.166 50.3276 294.019 53.556L293.847 53.58V53.754V291.246ZM262.98 57.1317V56.9142L262.763 56.9324C244.287 58.4803 225.532 59.2541 206.5 59.2538C187.467 59.2541 168.713 58.4803 150.237 56.9324L150.02 56.9142V57.1317V287.868V288.086L150.237 288.068C168.713 286.52 187.467 285.746 206.5 285.746C225.532 285.746 244.287 286.52 262.763 288.068L262.98 288.086V287.868V57.1317Z" fill="#F3F1EC" stroke="#E8E8E8" stroke-width="0.4"/>
</svg>
