<svg width="253" height="324" viewBox="0 0 253 324" fill="none" xmlns="http://www.w3.org/2000/svg">
<path d="M175.1 252.195L175.101 252.19C179.607 235.699 188.887 217.197 202.929 196.685L202.931 196.683C215.317 178.99 225.731 159.624 234.171 138.585L234.172 138.583C238.652 127.605 240.897 114.322 240.897 98.7269C240.897 82.9926 238.652 69.4995 234.171 58.2409C229.687 46.9786 222.962 36.757 213.992 27.5756C205.978 19.3733 196.059 12.5573 184.23 7.12974L184.229 7.12941C174.323 2.54617 162.711 0.250267 149.389 0.25C136.749 0.250267 125.134 2.54533 114.542 7.13193L114.542 7.13205C103.263 12 93.3449 18.8142 84.7846 27.5756C76.2241 36.3376 69.4974 46.56 64.6046 58.245C60.1232 68.9474 57.8799 81.0455 57.88 94.5436C57.8799 109.16 60.192 121.814 64.8079 132.513L64.9585 132.862H64.5784H61.1042C52.2772 132.862 44.5483 134.391 37.9113 137.441L37.9112 137.441C30.0343 141.055 23.4537 145.639 18.1649 151.191L18.1646 151.191C12.0529 157.586 7.57612 164.392 4.72851 171.609L4.72824 171.61C1.74316 179.109 0.249948 187.095 0.25 195.571C0.249948 203.907 1.74297 211.824 4.72824 219.324L4.72854 219.325C7.84966 227.242 12.3264 234.044 18.1585 239.736L18.1588 239.736C24.5445 245.994 31.1271 250.576 37.9057 253.49L37.9063 253.49C44.9565 256.543 52.6881 258.072 61.1042 258.072C69.931 258.072 77.6599 256.543 84.2971 253.493L84.2972 253.493C92.1739 249.879 98.7545 245.294 104.044 239.742L104.044 239.742C110.155 233.348 114.632 226.542 117.48 219.325L117.48 219.324C120.465 211.824 121.958 203.907 121.958 195.571C121.958 180.983 117.411 165.546 108.298 149.258L108.297 149.257C101.483 136.843 96.2343 126.518 92.5521 118.282L92.5513 118.28C89.5374 111.41 88.0342 103.426 88.0343 94.3344C88.0342 85.7986 89.5382 77.7491 92.5479 70.1881C95.6936 62.2089 100.209 55.3463 106.093 49.6032C112.514 43.3113 119.147 38.6901 125.993 35.7471C133.111 32.6649 140.911 31.1253 149.389 31.1251C158.273 31.1253 166.075 32.6642 172.79 35.7495C180.717 39.3868 187.352 44.0059 192.69 49.6091C192.69 49.6092 192.69 49.6093 192.69 49.6093L192.509 49.7818C198.639 56.1965 203.135 63.0293 205.997 70.2802L175.1 252.195ZM175.1 252.195C173.871 257.085 173.253 261.151 173.253 264.387C173.253 269.286 173.868 273.295 175.11 276.403L175.11 276.403M175.1 252.195L175.11 276.403M175.11 276.403L175.115 276.413M175.11 276.403L175.115 276.413M175.115 276.413C176.758 280.058 178.682 282.946 180.891 285.065M175.115 276.413L229.184 318.547M229.184 318.547L229.185 318.546C238.879 313.86 246.697 308.634 252.646 302.87L231.334 281.056C227.665 284.626 223.204 287.581 217.953 289.924C213.691 291.894 208.75 292.875 203.136 292.875C196.859 292.875 192.182 292.178 189.134 290.76C186.11 289.353 183.362 287.455 180.891 285.065M229.184 318.547C222.142 322.011 213.463 323.75 203.136 323.75C192.665 323.75 184.257 322.288 177.899 319.38L177.898 319.38M229.184 318.547L177.898 319.38M180.891 285.065L181.065 284.886M180.891 285.065C180.891 285.066 180.891 285.066 180.892 285.066L181.065 284.886M181.065 284.886C178.885 282.794 176.977 279.935 175.342 276.31M181.065 284.886C183.517 287.256 186.242 289.139 189.239 290.533C192.236 291.928 196.868 292.625 203.136 292.625C208.721 292.625 213.626 291.649 217.85 289.697C223.077 287.364 227.514 284.425 231.159 280.877L175.342 276.31M175.342 276.31C174.116 273.242 173.503 269.268 173.503 264.387C173.503 261.18 174.116 257.136 175.342 252.256V276.31ZM177.898 319.38C170.565 316.044 164.461 311.878 159.581 306.883C154.153 301.327 150.085 295.15 147.373 288.35C144.662 281.412 143.303 273.426 143.303 264.387C143.303 254.51 144.73 245.896 147.578 238.541L177.898 319.38ZM72.8564 166.06L72.8522 166.059C69.2756 164.51 65.3585 163.737 61.1042 163.737C56.8497 163.737 52.9326 164.51 49.3562 166.058L49.3521 166.06C45.6461 167.746 42.2843 170.064 39.2671 173.012L39.267 173.011L39.2592 173.02C36.2437 176.246 33.9782 179.688 32.4668 183.344L32.4656 183.347C30.9544 187.144 30.1998 191.219 30.1999 195.571C30.1998 199.785 30.9548 203.791 32.4656 207.586L32.4669 207.589C33.9782 211.246 36.2437 214.687 39.2592 217.914L39.259 217.914L39.2671 217.922C42.2843 220.87 45.6461 223.187 49.352 224.873L49.3562 224.875C52.9326 226.424 56.8497 227.196 61.1042 227.196C65.3585 227.196 69.2756 226.424 72.8522 224.875L72.8563 224.873C76.5621 223.187 79.9239 220.87 82.9413 217.922L82.9414 217.922L82.9492 217.914C85.9645 214.687 88.23 211.246 89.7416 207.589L89.7428 207.586C91.2534 203.791 92.0083 199.785 92.0085 195.571C92.0083 191.219 91.2538 187.144 89.7428 183.347L89.7415 183.344C88.23 179.688 85.9645 176.246 82.9492 173.02L82.9494 173.02L82.9413 173.012C79.9239 170.064 76.5621 167.746 72.8564 166.06Z" fill="#F3F1EC" stroke="#E8E8E8" stroke-width="0.5"/>
</svg>
