<svg width="414" height="346" viewBox="0 0 414 346" fill="none" xmlns="http://www.w3.org/2000/svg">
<path d="M248.342 263.256C247.116 268.136 246.503 272.18 246.503 275.387C246.503 280.268 247.116 284.242 248.342 287.31C249.977 290.935 251.885 293.794 254.065 295.886C256.517 298.256 259.242 300.139 262.239 301.533C265.236 302.928 269.868 303.625 276.136 303.625C281.721 303.625 286.626 302.649 290.85 300.697C296.163 298.326 300.659 295.328 304.338 291.702L326 313.874C320.005 319.731 312.103 325.03 302.294 329.771C295.209 333.257 286.49 335 276.136 335C265.645 335 257.198 333.536 250.795 330.607C243.438 327.261 237.307 323.077 232.402 318.057C226.952 312.48 222.865 306.274 220.141 299.442C217.416 292.469 216.053 284.451 216.053 275.387C216.053 265.487 217.484 256.841 220.345 249.451C230.699 223.375 240.781 203.713 250.59 190.465C262.852 173.872 272.321 156.232 278.997 137.546C281.994 129.319 283.492 119.976 283.493 109.518C283.492 98.2229 281.994 88.8104 278.997 81.2802C276.135 74.0293 271.639 67.1965 265.509 60.7818C260.195 55.2042 253.588 50.6025 245.686 46.9768C239.01 43.9092 231.244 42.3753 222.389 42.3751C213.941 42.3753 206.176 43.9092 199.091 46.9768C192.279 49.9054 185.671 54.507 179.268 60.7818C173.41 66.4993 168.914 73.332 165.78 81.2802C162.783 88.8104 161.284 96.8285 161.284 105.334C161.284 114.398 162.783 122.347 165.78 129.179C169.459 137.407 174.704 147.726 181.516 160.136C190.644 176.451 195.208 191.93 195.208 206.571C195.208 214.938 193.71 222.886 190.712 230.416C187.851 237.668 183.355 244.5 177.225 250.915C171.911 256.493 165.303 261.094 157.401 264.72C150.726 267.788 142.96 269.321 134.104 269.321C125.657 269.321 117.891 267.788 110.807 264.72C103.995 261.792 97.3871 257.19 90.9838 250.915C85.1254 245.198 80.6295 238.365 77.496 230.416C74.4986 222.886 72.9999 214.938 73 206.571C72.9999 198.065 74.4986 190.047 77.496 182.517C80.357 175.266 84.8529 168.433 90.9838 162.019C96.2972 156.441 102.905 151.839 110.807 148.214C117.483 145.146 125.248 143.612 134.104 143.612H137.578C132.946 132.875 130.63 120.185 130.63 105.544C130.63 92.0177 132.878 79.886 137.374 69.1485C142.279 57.4354 149.022 47.1862 157.606 38.4009C166.189 29.6161 176.134 22.7834 187.443 17.9025C198.069 13.3011 209.718 11.0003 222.389 11C235.74 11.0003 247.389 13.3011 257.334 17.9025C269.187 23.3411 279.133 30.1739 287.171 38.4009C296.163 47.6045 302.907 57.8537 307.403 69.1485C311.899 80.4437 314.147 93.9698 314.147 109.727C314.147 125.345 311.899 138.662 307.403 149.678C298.956 170.734 288.533 190.117 276.136 207.826C262.103 228.325 252.838 246.801 248.342 263.256ZM145.753 177.288C142.21 175.754 138.328 174.987 134.104 174.987C129.881 174.987 125.998 175.754 122.456 177.288C118.777 178.961 115.439 181.262 112.442 184.19C109.444 187.398 107.196 190.814 105.698 194.44C104.199 198.205 103.45 202.249 103.45 206.571C103.45 210.755 104.199 214.729 105.698 218.494C107.196 222.12 109.444 225.536 112.442 228.743C115.439 231.671 118.777 233.972 122.456 235.646C125.998 237.18 129.881 237.946 134.104 237.946C138.328 237.946 142.21 237.18 145.753 235.646C149.431 233.972 152.769 231.671 155.767 228.743C158.764 225.536 161.012 222.12 162.51 218.494C164.009 214.729 164.758 210.755 164.758 206.571C164.758 202.249 164.009 198.205 162.51 194.44C161.012 190.814 158.764 187.398 155.767 184.19C152.769 181.262 149.431 178.961 145.753 177.288Z" fill="#F3F1EC"/>
</svg>
