<svg width="280" height="324" viewBox="0 0 280 324" fill="none" xmlns="http://www.w3.org/2000/svg">
<path d="M175.416 177.773L175.33 176.367L173.92 176.365L105.045 176.272L103.635 176.27L103.546 177.678C101.763 206.043 95.6938 232.448 85.3486 256.902L85.348 256.904C75.9595 279.16 62.4224 300.59 44.718 321.191L3.70722 321.136C29.1921 296.262 47.1958 271.048 57.6453 245.482C66.5099 224.021 71.767 201.469 73.4183 177.832L73.5302 176.229L71.9239 176.227L8.27777 176.142L8.31741 146.727L71.9636 146.813L73.5698 146.815L73.4622 145.212C71.8746 121.571 66.6779 99.0032 57.8704 77.5173L57.8698 77.5158C47.3468 51.9212 29.4036 26.5872 4.10941 1.50495L45.145 1.56025C62.6507 22.2098 76.1325 43.7491 85.6069 66.1774L85.6086 66.1814C96.0312 90.66 102.028 117.076 103.589 145.44L103.667 146.856L105.085 146.858L173.96 146.95L175.378 146.952L175.46 145.537C177.097 117.177 183.165 90.7774 193.654 66.327L193.656 66.323C203.19 43.9203 216.73 22.4174 234.291 1.81512L275.327 1.87042C249.965 26.8844 231.954 52.17 221.362 77.7361L221.361 77.7376C212.496 99.1997 207.238 121.753 205.587 145.391L205.475 146.993L207.082 146.995L268.534 147.078L268.495 176.492L207.042 176.409L205.436 176.407L205.543 178.01C207.13 201.65 212.326 224.216 221.133 245.7C231.513 271.295 249.449 296.559 274.868 321.501L233.857 321.446C216.209 300.799 202.731 279.334 193.403 257.054C183.12 232.133 177.123 205.708 175.416 177.773Z" fill="#F3F1EC" stroke="white" stroke-width="3"/>
</svg>
